<?xml version="1.0" encoding="UTF-8" standalone="no"?>
<!-- Generator: Adobe Illustrator 18.0.0, SVG Export Plug-In . SVG Version: 6.00 Build 0)  -->

<svg
   xmlns:dc="http://purl.org/dc/elements/1.1/"
   xmlns:cc="http://creativecommons.org/ns#"
   xmlns:rdf="http://www.w3.org/1999/02/22-rdf-syntax-ns#"
   xmlns:svg="http://www.w3.org/2000/svg"
   xmlns="http://www.w3.org/2000/svg"
   xmlns:sodipodi="http://sodipodi.sourceforge.net/DTD/sodipodi-0.dtd"
   xmlns:inkscape="http://www.inkscape.org/namespaces/inkscape"
   version="1.1"
   id="Ebene_1"
   x="0px"
   y="0px"
   width="100px"
   height="100px"
   viewBox="0 0 100 100"
   enable-background="new 0 0 100 100"
   xml:space="preserve"
   inkscape:version="0.91 r13725"
   sodipodi:docname="Light-Bulb_icon_by_Till_Teenck_green.svg"><metadata
     id="metadata9030"><rdf:RDF><cc:Work
         rdf:about=""><dc:format>image/svg+xml</dc:format><dc:type
           rdf:resource="http://purl.org/dc/dcmitype/StillImage" /><dc:title></dc:title></cc:Work></rdf:RDF></metadata><defs
     id="defs9028" /><sodipodi:namedview
     pagecolor="#ffffff"
     bordercolor="#666666"
     borderopacity="1"
     objecttolerance="10"
     gridtolerance="10"
     guidetolerance="10"
     inkscape:pageopacity="0"
     inkscape:pageshadow="2"
     inkscape:window-width="857"
     inkscape:window-height="480"
     id="namedview9026"
     showgrid="false"
     inkscape:zoom="2.36"
     inkscape:cx="50"
     inkscape:cy="50"
     inkscape:window-x="80"
     inkscape:window-y="24"
     inkscape:window-maximized="0"
     inkscape:current-layer="Ebene_1" /><g
     id="g8996"
     style="fill:#00af89;fill-opacity:1"><path
       d="M66.4,30c-4.1-4.4-10-6.8-16.5-6.8S37.6,25.6,33.4,30c-4,4.2-6.2,10.1-6.2,16.5c0,7.9,3.5,12.9,6.6,17.4   c2.5,3.5,4.6,6.6,4.6,10.3c0,2,1.5,3.8,4.5,5c2.1,0.9,4.8,1.5,7,1.5l0,0l0,0c2.2,0,4.9-0.6,7-1.5c2.9-1.2,4.5-3,4.5-5   c0-3.8,2.1-6.8,4.6-10.3c3.1-4.5,6.6-9.5,6.6-17.4C72.6,40.1,70.4,34.3,66.4,30z M57.7,46.9c-0.5-0.4-1.2-0.3-1.5,0.2   c-5.7,7.1-7.3,15.6-7.8,21.5c0,0.2,0,0.4,0,0.6c-0.4-1-0.8-2.2-1.1-3.5c-1.1-4-1.8-9.9,1-15.2c2.3-4.3,5.6-7.6,9.7-9.7   c2-1,3.7-1.4,4.7-1.7c0.6,2.8,1.8,11.1-2.2,18.8c-2.6,4.9-7.3,10.5-9.9,13.3c0-0.8,0.1-1.7,0.1-2.6c0.4-5.6,2-13.6,7.3-20.3   C58.2,48,58.1,47.3,57.7,46.9z M44.4,55.2c-1.5-3-2.7-3.9-2.9-4.1c-0.5-0.3-1.2-0.2-1.5,0.3c-0.3,0.5-0.2,1.2,0.3,1.5   c0,0,1.9,1.5,3.8,7c0,0.1,0.1,0.2,0.1,0.2c0.1,2,0.4,4.1,1,6.2c0.1,0.2,0.1,0.5,0.2,0.7c-4.3-4.7-9.6-12.1-8.9-19.5   c5.3-0.9,8.4,1.6,9.5,2.7C45.2,51.9,44.7,53.5,44.4,55.2z M64.2,62.7c-2.6,3.7-5,7.1-5,11.6c0,1.5-2.2,2.6-3.1,3   c-1.6,0.7-3.5,1.1-5.2,1.3c-0.1-0.8-0.3-2.2-0.3-3.9c1.5-1.6,8.4-9,11.8-15.5c5.3-10.1,2.3-20.9,2.2-21.4c-0.1-0.5-0.6-0.8-1.2-0.8   c-0.1,0-2.8,0.3-6.3,2c-2.9,1.4-7,4.2-10.1,9.4c-1.8-1.6-5.7-4-11.8-2.7c-0.4,0.1-0.8,0.5-0.8,0.9c-0.7,4.9,0.8,10.3,4.6,16   c2.7,4.1,5.9,7.4,8.2,9.6c0.5,1.1,0.9,1.8,1.1,2.2c0.1,1.8,0.2,3.2,0.3,4.1c-1.6-0.2-3.4-0.6-4.9-1.2c-0.9-0.4-3.1-1.5-3.1-3   c0-4.5-2.4-7.9-5-11.6c-3.1-4.4-6.3-9-6.3-16.1c0-5.8,2-11.1,5.6-15c3.8-4,8.9-6.1,14.9-6.1s11.1,2.1,14.9,6.1   c3.6,3.8,5.6,9.2,5.6,15C70.4,53.7,67.2,58.3,64.2,62.7z"
       id="path8998"
       style="fill:#00af89;fill-opacity:1" /><path
       d="M58.9,79.6c-2.5,1.8-5.6,2.8-9,2.8c-3.4,0-6.5-1-9.1-2.8c-0.5-0.4-1.2-0.2-1.5,0.2c-0.4,0.5-0.2,1.2,0.2,1.5   c2.9,2.1,6.5,3.3,10.3,3.3s7.4-1.1,10.3-3.2c0.5-0.4,0.6-1,0.2-1.5C60.1,79.4,59.4,79.3,58.9,79.6z"
       id="path9000"
       style="fill:#00af89;fill-opacity:1" /><path
       d="M58.9,83.5c-2.3,1.7-5.3,2.5-9,2.5s-6.7-0.8-9.1-2.5c-0.5-0.4-1.2-0.2-1.5,0.2c-0.4,0.5-0.2,1.2,0.2,1.5   c2.7,2,6.1,3,10.3,3s7.5-1,10.3-2.9c0.5-0.4,0.6-1,0.2-1.5C60.1,83.2,59.4,83.1,58.9,83.5z"
       id="path9002"
       style="fill:#00af89;fill-opacity:1" /><path
       d="M58.9,87.4c-2.7,1.9-6.1,2.2-9,2.2c-2.9,0-6.3-0.3-9.1-2.3c-0.5-0.4-1.2-0.2-1.5,0.2c-0.4,0.5-0.2,1.2,0.2,1.5   c1.9,1.4,4.1,2.1,6.2,2.4c0.3,2,2,3.6,4.1,3.6c2.1,0,3.8-1.6,4.1-3.6c2.1-0.3,4.2-1,6.1-2.4c0.5-0.4,0.6-1,0.2-1.5   C60.1,87.1,59.4,87,58.9,87.4z M49.9,92.9c-0.8,0-1.5-0.5-1.8-1.2c0.6,0,1.2,0,1.8,0s1.2,0,1.8,0C51.5,92.4,50.8,92.9,49.9,92.9z"
       id="path9004"
       style="fill:#00af89;fill-opacity:1" /><path
       d="M46.2,27.8c-4.4,0.8-7.8,2.9-10.9,6.7C34.9,35,35,35.7,35.5,36c0.2,0.2,0.4,0.2,0.7,0.2c0.3,0,0.6-0.1,0.9-0.4   c2.7-3.4,5.7-5.3,9.5-5.9c0.6-0.1,1-0.7,0.9-1.3C47.4,28.1,46.8,27.7,46.2,27.8z"
       id="path9006"
       style="fill:#00af89;fill-opacity:1" /><path
       d="M48.4,17.5c0,0.4,0.2,0.8,0.4,1c0.3,0.3,0.6,0.4,1,0.4c0.4,0,0.8-0.2,1-0.4c0.3-0.3,0.4-0.6,0.4-1c0-0.4-0.2-0.8-0.4-1   s-0.4-0.3-0.6-0.4c0.6-0.2,1-0.7,1-1.4c0-0.6-0.4-1.2-1-1.4c0.6-0.2,1-0.7,1-1.4c0-0.6-0.4-1.2-1-1.4c0.6-0.2,1-0.7,1-1.4   c0-0.6-0.4-1.2-1-1.4c0.2-0.1,0.4-0.2,0.6-0.4c0.3-0.3,0.4-0.6,0.4-1s-0.2-0.8-0.4-1C50.6,5.2,50.2,5,49.9,5c-0.4,0-0.8,0.2-1,0.4   c-0.3,0.3-0.4,0.6-0.4,1s0.2,0.8,0.4,1s0.4,0.3,0.6,0.4c-0.6,0.2-1,0.7-1,1.4c0,0.6,0.4,1.2,1,1.4c-0.6,0.2-1,0.7-1,1.4   c0,0.6,0.4,1.2,1,1.4c-0.6,0.2-1,0.7-1,1.4c0,0.6,0.4,1.2,1,1.4c-0.2,0.1-0.4,0.2-0.6,0.4C48.6,16.7,48.4,17.1,48.4,17.5z"
       id="path9008"
       style="fill:#00af89;fill-opacity:1" /><path
       d="M27.7,14.6c0.1,0,0.3,0,0.4-0.1c-0.4,0.5-0.4,1.2-0.1,1.7c0.4,0.5,1,0.8,1.6,0.6c-0.4,0.5-0.4,1.2-0.1,1.7   c0.4,0.5,1,0.8,1.6,0.6c-0.4,0.5-0.4,1.2-0.1,1.7c0.3,0.4,0.7,0.6,1.2,0.6c0.1,0,0.3,0,0.4-0.1c-0.2,0.3-0.3,0.6-0.3,0.9   c0,0.4,0.2,0.8,0.4,1c0.3,0.3,0.6,0.4,1,0.4c0.4,0,0.8-0.2,1-0.4c0.3-0.3,0.4-0.6,0.4-1c0-0.4-0.2-0.8-0.4-1   c-0.3-0.3-0.6-0.4-1-0.4c-0.1,0-0.3,0-0.4,0.1c0.4-0.5,0.4-1.2,0.1-1.7c-0.4-0.5-1-0.8-1.6-0.6c0.4-0.5,0.4-1.2,0.1-1.7   c-0.4-0.5-1-0.8-1.6-0.6c0.4-0.5,0.4-1.2,0.1-1.7c-0.4-0.5-1-0.8-1.6-0.6c0.2-0.3,0.3-0.6,0.3-0.9c0-0.4-0.2-0.8-0.4-1   c-0.3-0.3-0.6-0.4-1-0.4c-0.4,0-0.8,0.2-1,0.4c-0.3,0.3-0.4,0.6-0.4,1c0,0.4,0.2,0.8,0.4,1C27,14.5,27.3,14.6,27.7,14.6z"
       id="path9010"
       style="fill:#00af89;fill-opacity:1" /><path
       d="M13.1,32.6c0.4,0,0.8-0.2,1-0.4c0,0,0-0.1,0.1-0.1c0,0.6,0.3,1.2,0.9,1.5c0.6,0.2,1.3,0.1,1.7-0.4c0,0.6,0.3,1.2,0.9,1.4   c0.6,0.2,1.3,0.1,1.7-0.4c0,0.6,0.3,1.2,0.9,1.4c0.2,0.1,0.4,0.1,0.6,0.1c0.4,0,0.8-0.2,1.1-0.5v0.1c0,0.4,0.2,0.8,0.4,1   c0.3,0.3,0.6,0.4,1,0.4c0.4,0,0.8-0.2,1-0.4c0.3-0.3,0.4-0.6,0.4-1s-0.2-0.8-0.4-1c-0.3-0.3-0.6-0.4-1-0.4c-0.4,0-0.8,0.2-1,0.4   c0,0,0,0.1-0.1,0.1c0-0.6-0.3-1.2-0.9-1.5c-0.6-0.2-1.3-0.1-1.7,0.4c0-0.6-0.3-1.2-0.9-1.4c-0.6-0.2-1.3-0.1-1.7,0.4   c0-0.6-0.3-1.2-0.9-1.4c-0.6-0.2-1.3-0.1-1.7,0.4v-0.1c0-0.4-0.2-0.8-0.4-1c-0.3-0.3-0.6-0.4-1-0.4c-0.4,0-0.8,0.2-1,0.4   c-0.3,0.3-0.4,0.6-0.4,1c0,0.4,0.2,0.8,0.4,1S12.7,32.6,13.1,32.6z"
       id="path9012"
       style="fill:#00af89;fill-opacity:1" /><path
       d="M20.6,53.1c0.3,0.3,0.6,0.4,1,0.4c0.4,0,0.8-0.2,1-0.4c0.3-0.3,0.4-0.6,0.4-1c0-0.4-0.2-0.8-0.4-1c-0.3-0.3-0.6-0.4-1-0.4   c-0.4,0-0.8,0.2-1,0.4c-0.2,0.2-0.4,0.5-0.4,0.9c-0.3-0.5-0.9-0.8-1.5-0.7c-0.6,0.1-1.1,0.6-1.2,1.2c-0.3-0.5-0.9-0.8-1.5-0.7   c-0.6,0.1-1.1,0.6-1.2,1.2c-0.3-0.5-0.9-0.8-1.5-0.7s-1.1,0.6-1.2,1.2c-0.1-0.1-0.1-0.2-0.2-0.3c-0.3-0.3-0.6-0.4-1-0.4   c-0.4,0-0.8,0.2-1,0.4c-0.3,0.3-0.4,0.6-0.4,1c0,0.4,0.2,0.8,0.4,1c0.3,0.3,0.6,0.4,1,0.4c0.4,0,0.8-0.2,1-0.4   c0.2-0.2,0.4-0.5,0.4-0.9c0.3,0.5,0.7,0.7,1.3,0.7c0.1,0,0.2,0,0.3,0c0.6-0.1,1.1-0.6,1.2-1.2c0.3,0.5,0.9,0.8,1.5,0.7   c0.6-0.1,1.1-0.6,1.2-1.2c0.3,0.5,0.9,0.8,1.5,0.7s1.1-0.6,1.2-1.3C20.4,52.9,20.5,53,20.6,53.1z"
       id="path9014"
       style="fill:#00af89;fill-opacity:1" /><path
       d="M29.5,65.4c-0.4,0-0.8,0.2-1,0.4c-0.3,0.3-0.4,0.6-0.4,1c0,0.2,0.1,0.5,0.2,0.7c-0.5-0.3-1.2-0.2-1.7,0.3   c-0.5,0.5-0.5,1.1-0.3,1.7c-0.5-0.3-1.2-0.2-1.7,0.3c-0.5,0.5-0.5,1.1-0.3,1.7c-0.5-0.3-1.2-0.2-1.7,0.3c-0.5,0.5-0.5,1.1-0.3,1.7   c-0.2-0.1-0.4-0.2-0.7-0.2c-0.4,0-0.8,0.2-1,0.4c-0.2,0.2-0.4,0.6-0.4,1s0.2,0.8,0.4,1c0.3,0.3,0.6,0.4,1,0.4c0.4,0,0.8-0.2,1-0.4   c0.3-0.3,0.4-0.6,0.4-1c0-0.2-0.1-0.5-0.2-0.7c0.2,0.1,0.4,0.2,0.7,0.2c0.4,0,0.7-0.1,1-0.4c0.5-0.5,0.5-1.1,0.3-1.7   c0.5,0.3,1.2,0.2,1.7-0.3c0.5-0.5,0.5-1.1,0.3-1.7c0.5,0.3,1.2,0.2,1.7-0.3s0.5-1.1,0.3-1.7c0.2,0.1,0.4,0.2,0.7,0.2   c0.4,0,0.8-0.2,1-0.4c0.3-0.3,0.4-0.6,0.4-1s-0.2-0.8-0.4-1C30.3,65.5,29.9,65.4,29.5,65.4z"
       id="path9016"
       style="fill:#00af89;fill-opacity:1" /><path
       d="M66,23.8c0.4,0,0.8-0.2,1-0.4c0.3-0.3,0.4-0.6,0.4-1c0-0.3-0.1-0.6-0.3-0.9c0.1,0,0.3,0.1,0.4,0.1c0.5,0,0.9-0.2,1.2-0.6   c0.4-0.5,0.3-1.2-0.1-1.7c0.6,0.2,1.2-0.1,1.6-0.6c0.4-0.5,0.3-1.2-0.1-1.7c0.6,0.2,1.2-0.1,1.6-0.6c0.4-0.5,0.3-1.2-0.1-1.7   c0.1,0,0.3,0.1,0.4,0.1c0.4,0,0.8-0.2,1-0.4c0.3-0.3,0.4-0.6,0.4-1c0-0.4-0.2-0.8-0.4-1c-0.3-0.3-0.6-0.4-1-0.4s-0.8,0.2-1,0.4   c-0.3,0.3-0.4,0.6-0.4,1c0,0.3,0.1,0.6,0.3,0.9c-0.6-0.2-1.2,0.1-1.6,0.6c-0.4,0.5-0.3,1.2,0.1,1.7c-0.6-0.2-1.2,0.1-1.6,0.6   c-0.4,0.5-0.3,1.2,0.1,1.7c-0.6-0.2-1.2,0.1-1.6,0.6c-0.4,0.5-0.3,1.2,0.1,1.7c-0.1,0-0.3-0.1-0.4-0.1c-0.4,0-0.8,0.2-1,0.4   c-0.3,0.3-0.4,0.6-0.4,1c0,0.4,0.2,0.8,0.4,1C65.2,23.7,65.6,23.8,66,23.8z"
       id="path9018"
       style="fill:#00af89;fill-opacity:1" /><path
       d="M76.6,36.8c0.4,0,0.8-0.2,1-0.4c0.3-0.3,0.4-0.6,0.4-1v-0.1c0.3,0.3,0.7,0.5,1.1,0.5c0.2,0,0.4,0,0.6-0.1   c0.6-0.2,0.9-0.8,0.9-1.4c0.4,0.5,1.1,0.6,1.7,0.4c0.6-0.2,0.9-0.8,0.9-1.4c0.4,0.5,1.1,0.6,1.7,0.4c0.6-0.2,0.9-0.8,0.9-1.5   c0,0,0,0.1,0.1,0.1c0.3,0.3,0.6,0.4,1,0.4c0.4,0,0.8-0.2,1-0.4c0.3-0.3,0.4-0.6,0.4-1s-0.2-0.8-0.4-1c-0.3-0.3-0.6-0.4-1-0.4   c-0.4,0-0.8,0.2-1,0.4c-0.3,0.3-0.4,0.6-0.4,1v0.1c-0.4-0.5-1.1-0.6-1.7-0.4c-0.6,0.2-0.9,0.8-0.9,1.4c-0.4-0.5-1.1-0.6-1.7-0.4   c-0.6,0.2-0.9,0.8-0.9,1.4c-0.4-0.5-1.1-0.6-1.7-0.4c-0.6,0.2-0.9,0.8-0.9,1.5c0,0,0-0.1-0.1-0.1c-0.3-0.3-0.6-0.4-1-0.4   c-0.4,0-0.8,0.2-1,0.4c-0.3,0.3-0.4,0.6-0.4,1s0.2,0.8,0.4,1C75.8,36.6,76.2,36.8,76.6,36.8z"
       id="path9020"
       style="fill:#00af89;fill-opacity:1" /><path
       d="M90,53.2c-0.3-0.3-0.6-0.4-1-0.4c-0.4,0-0.8,0.2-1,0.4c-0.1,0.1-0.2,0.2-0.2,0.3c-0.1-0.6-0.5-1.1-1.2-1.3   c-0.6-0.1-1.2,0.2-1.5,0.7c-0.1-0.6-0.5-1.1-1.2-1.2c-0.6-0.1-1.2,0.2-1.5,0.7c-0.1-0.6-0.5-1.1-1.2-1.2c-0.6-0.1-1.2,0.2-1.5,0.7   c0-0.3-0.2-0.6-0.4-0.9c-0.3-0.3-0.6-0.4-1-0.4c-0.4,0-0.8,0.2-1,0.4c-0.3,0.3-0.4,0.6-0.4,1c0,0.4,0.2,0.8,0.4,1   c0.3,0.3,0.6,0.4,1,0.4c0.4,0,0.8-0.2,1-0.4c0.1-0.1,0.2-0.2,0.2-0.3c0.1,0.6,0.5,1.1,1.2,1.3c0.6,0.1,1.2-0.2,1.5-0.7   c0.1,0.6,0.5,1.1,1.2,1.2c0.6,0.1,1.2-0.2,1.5-0.7c0.1,0.6,0.5,1.1,1.2,1.2c0.1,0,0.2,0,0.3,0c0.5,0,1-0.3,1.3-0.7   c0,0.3,0.2,0.6,0.4,0.9c0.3,0.3,0.6,0.4,1,0.4c0.4,0,0.8-0.2,1-0.4c0.3-0.3,0.4-0.6,0.4-1C90.4,53.9,90.3,53.5,90,53.2z"
       id="path9022"
       style="fill:#00af89;fill-opacity:1" /><path
       d="M78.1,73.2c-0.2,0-0.5,0.1-0.7,0.2c0.3-0.5,0.2-1.2-0.3-1.7s-1.1-0.5-1.7-0.3c0.3-0.5,0.2-1.2-0.3-1.7s-1.1-0.5-1.7-0.3   c0.3-0.5,0.2-1.2-0.3-1.7c-0.5-0.5-1.1-0.5-1.7-0.3c0.1-0.2,0.2-0.4,0.2-0.7c0-0.4-0.2-0.8-0.4-1c-0.3-0.3-0.6-0.4-1-0.4   c-0.4,0-0.8,0.2-1,0.4c-0.3,0.3-0.4,0.6-0.4,1c0,0.4,0.2,0.8,0.4,1c0.3,0.3,0.6,0.4,1,0.4c0.2,0,0.5-0.1,0.7-0.2   c-0.3,0.5-0.2,1.2,0.3,1.7c0.5,0.5,1.1,0.5,1.7,0.3c-0.3,0.5-0.2,1.2,0.3,1.7s1.1,0.5,1.7,0.3c-0.3,0.5-0.2,1.2,0.3,1.7   c0.3,0.3,0.7,0.4,1,0.4c0.2,0,0.5-0.1,0.7-0.2c-0.1,0.2-0.2,0.4-0.2,0.7c0,0.4,0.2,0.8,0.4,1c0.3,0.3,0.6,0.4,1,0.4   c0.4,0,0.8-0.2,1-0.4c0.3-0.3,0.4-0.6,0.4-1s-0.2-0.8-0.4-1C78.8,73.3,78.4,73.2,78.1,73.2z"
       id="path9024"
       style="fill:#00af89;fill-opacity:1" /></g></svg>